<svg width="445.61134033203126px" height="121.39999999999999px" xmlns="http://www.w3.org/2000/svg" viewBox="27.19432983398437 14.300000000000004 445.61134033203126 121.39999999999999" style="background: rgb(255, 255, 255);" preserveAspectRatio="xMidYMid"><defs><linearGradient id="editing-glowing-gradient" x1="0.8146601955249185" x2="0.18533980447508147" y1="0.8885729807284856" y2="0.11142701927151444"><stop offset="0" stop-color="#67ff43"></stop><stop offset="1" stop-color="#90ffff"></stop></linearGradient><filter id="editing-glowing" x="-100%" y="-100%" width="300%" height="300%"><feGaussianBlur in="SourceGraphic" result="blur" stdDeviation="10"></feGaussianBlur><feMerge><feMergeNode in="blur"></feMergeNode><feMergeNode in="SourceGraphic"></feMergeNode></feMerge></filter></defs><g filter="url(#editing-glowing)"><g transform="translate(94.63801145553589, 98.38999938964844)"><path d="M20.22-22.46L20.22-22.46L20.22-22.46Q21.12-24.83 21.12-26.88L21.12-26.88L21.12-26.88Q21.12-30.66 18.05-30.66L18.05-30.66L18.05-30.66Q16.45-30.66 15.14-29.22L15.14-29.22L15.14-29.22Q13.82-27.78 13.82-25.98L13.82-25.98L13.82-25.98Q13.82-24.70 14.85-23.68L14.85-23.68L14.85-23.68Q16.32-22.27 20.10-19.97L20.10-19.97L20.10-19.97Q23.87-17.66 25.31-15.78L25.31-15.78L25.31-15.78Q26.75-13.89 26.75-11.30L26.75-11.30L26.75-11.30Q26.75-8.70 25.50-6.34L25.50-6.34L25.50-6.34Q24.26-3.97 22.02-2.30L22.02-2.30L22.02-2.30Q17.22 1.28 9.54 1.28L9.54 1.28L9.54 1.28Q5.38 1.28 2.18-0.90L2.18-0.90L2.18-0.90Q-1.02-3.01-1.02-5.50L-1.02-5.50L-1.02-5.50Q-1.02-8 0.80-9.47L0.80-9.47L0.80-9.47Q2.62-10.94 5.31-10.94L5.31-10.94L5.31-10.94Q8-10.94 9.66-9.92L9.66-9.92L9.66-9.92Q8.83-7.81 8.83-6.40L8.83-6.40L8.83-6.40Q8.83-2.18 12.42-2.18L12.42-2.18L12.42-2.18Q13.95-2.18 14.98-3.14L14.98-3.14L14.98-3.14Q16-4.10 16-5.76L16-5.76L16-5.76Q16-9.02 10.50-12.48L10.50-12.48L10.50-12.48Q6.02-15.42 4.99-16.58L4.99-16.58L4.99-16.58Q3.26-18.62 3.26-21.18L3.26-21.18L3.26-21.18Q3.26-23.74 4.48-26.18L4.48-26.18L4.48-26.18Q5.70-28.61 7.94-30.34L7.94-30.34L7.94-30.34Q12.61-33.92 20.74-33.92L20.74-33.92L20.74-33.92Q24.90-33.92 27.36-32.26L27.36-32.26L27.36-32.26Q29.82-30.59 29.82-27.78L29.82-27.78L29.82-27.78Q29.82-24.96 28.13-23.36L28.13-23.36L28.13-23.36Q26.43-21.76 23.36-21.76L23.36-21.76L23.36-21.76Q21.25-21.76 20.22-22.46ZM52.74-2.69L52.74-2.69L52.74-2.69Q49.66 1.28 42.05 1.28L42.05 1.28L42.05 1.28Q38.08 1.28 35.20-1.12L35.20-1.12L35.20-1.12Q32.32-3.52 32.32-6.98L32.32-6.98L32.32-6.98Q32.32-8.90 32.51-9.86L32.51-9.86L36.80-32.64L49.79-33.92L45.12-9.22L45.12-9.22Q44.86-7.81 44.86-6.98L44.86-6.98L44.86-6.98Q44.86-3.26 47.10-3.26L47.10-3.26L47.10-3.26Q49.60-3.26 51.39-6.66L51.39-6.66L51.39-6.66Q51.97-7.74 52.22-9.15L52.22-9.15L56.77-32.64L69.38-33.92L64.64-8.96L64.64-8.96Q64.45-8 64.45-6.98L64.45-6.98L64.45-6.98Q64.45-5.95 65.02-4.83L65.02-4.83L65.02-4.83Q65.60-3.71 67.46-3.46L67.46-3.46L67.46-3.46Q67.07-1.92 65.73-0.90L65.73-0.90L65.73-0.90Q62.91 1.28 59.87 1.28L59.87 1.28L59.87 1.28Q56.83 1.28 55.04 0.19L55.04 0.19L55.04 0.19Q53.25-0.90 52.74-2.69ZM104-26.62L104-26.62L104-26.62Q104-23.94 101.76-22.27L101.76-22.27L101.76-22.27Q99.52-20.61 95.87-20.61L95.87-20.61L95.87-20.61Q94.34-20.61 93.44-21.06L93.44-21.06L93.44-21.06Q94.14-22.72 94.37-24.80L94.37-24.80L94.37-24.80Q94.59-26.88 94.59-27.46L94.59-27.46L94.59-27.46Q94.59-30.14 92.74-30.14L92.74-30.14L92.74-30.14Q91.46-30.14 90.02-28.54L90.02-28.54L90.02-28.54Q88.58-26.94 87.36-24.45L87.36-24.45L87.36-24.45Q84.67-18.69 84.67-12.86L84.67-12.86L84.67-12.86Q84.67-9.66 85.89-8.22L85.89-8.22L85.89-8.22Q87.10-6.78 89.79-6.78L89.79-6.78L89.79-6.78Q93.50-6.78 96.45-9.86L96.45-9.86L96.45-9.86Q97.28-10.82 97.73-11.90L97.73-11.90L97.73-11.90Q100.16-10.62 100.16-7.10L100.16-7.10L100.16-7.10Q100.16-3.52 96.19-1.15L96.19-1.15L96.19-1.15Q92.10 1.28 85.57 1.28L85.57 1.28L85.57 1.28Q72.58 1.28 72.58-12.48L72.58-12.48L72.58-12.48Q72.58-22.53 78.27-28.29L78.27-28.29L78.27-28.29Q83.78-33.92 93.89-33.92L93.89-33.92L93.89-33.92Q104-33.92 104-26.62ZM137.15-26.62L137.15-26.62L137.15-26.62Q137.15-23.94 134.91-22.27L134.91-22.27L134.91-22.27Q132.67-20.61 129.02-20.61L129.02-20.61L129.02-20.61Q127.49-20.61 126.59-21.06L126.59-21.06L126.59-21.06Q127.30-22.72 127.52-24.80L127.52-24.80L127.52-24.80Q127.74-26.88 127.74-27.46L127.74-27.46L127.74-27.46Q127.74-30.14 125.89-30.14L125.89-30.14L125.89-30.14Q124.61-30.14 123.17-28.54L123.17-28.54L123.17-28.54Q121.73-26.94 120.51-24.45L120.51-24.45L120.51-24.45Q117.82-18.69 117.82-12.86L117.82-12.86L117.82-12.86Q117.82-9.66 119.04-8.22L119.04-8.22L119.04-8.22Q120.26-6.78 122.94-6.78L122.94-6.78L122.94-6.78Q126.66-6.78 129.60-9.86L129.60-9.86L129.60-9.86Q130.43-10.82 130.88-11.90L130.88-11.90L130.88-11.90Q133.31-10.62 133.31-7.10L133.31-7.10L133.31-7.10Q133.31-3.52 129.34-1.15L129.34-1.15L129.34-1.15Q125.25 1.28 118.72 1.28L118.72 1.28L118.72 1.28Q105.73 1.28 105.73-12.48L105.73-12.48L105.73-12.48Q105.73-22.53 111.42-28.29L111.42-28.29L111.42-28.29Q116.93-33.92 127.04-33.92L127.04-33.92L127.04-33.92Q137.15-33.92 137.15-26.62ZM164.80-10.82L164.80-10.82L164.80-10.82Q166.40-9.73 166.40-7.33L166.40-7.33L166.40-7.33Q166.40-4.93 165.18-3.39L165.18-3.39L165.18-3.39Q163.97-1.86 161.98-0.83L161.98-0.83L161.98-0.83Q157.89 1.28 153.47 1.28L153.47 1.28L153.47 1.28Q149.06 1.28 146.46 0.32L146.46 0.32L146.46 0.32Q143.87-0.64 142.14-2.43L142.14-2.43L142.14-2.43Q138.75-5.82 138.75-12.03L138.75-12.03L138.75-12.03Q138.75-21.70 144-27.58L144-27.58L144-27.58Q149.63-33.92 159.42-33.92L159.42-33.92L159.42-33.92Q165.50-33.92 168.51-31.36L168.51-31.36L168.51-31.36Q170.75-29.44 170.75-26.30L170.75-26.30L170.75-26.30Q170.75-15.04 151.30-15.04L151.30-15.04L151.30-15.04Q151.04-13.38 151.04-11.97L151.04-11.97L151.04-11.97Q151.04-9.02 152.35-7.90L152.35-7.90L152.35-7.90Q153.66-6.78 156.10-6.78L156.10-6.78L156.10-6.78Q158.53-6.78 161.12-7.90L161.12-7.90L161.12-7.90Q163.71-9.02 164.80-10.82ZM151.74-17.79L151.74-17.79L151.74-17.79Q156.29-17.79 158.91-20.61L158.91-20.61L158.91-20.61Q161.54-23.30 161.54-27.58L161.54-27.58L161.54-27.58Q161.54-29.06 160.99-29.86L160.99-29.86L160.99-29.86Q160.45-30.66 159.36-30.66L159.36-30.66L159.36-30.66Q158.27-30.66 157.34-30.24L157.34-30.24L157.34-30.24Q156.42-29.82 155.46-28.42L155.46-28.42L155.46-28.42Q153.09-25.22 151.74-17.79ZM192.06-22.46L192.06-22.46L192.06-22.46Q192.96-24.83 192.96-26.88L192.96-26.88L192.96-26.88Q192.96-30.66 189.89-30.66L189.89-30.66L189.89-30.66Q188.29-30.66 186.98-29.22L186.98-29.22L186.98-29.22Q185.66-27.78 185.66-25.98L185.66-25.98L185.66-25.98Q185.66-24.70 186.69-23.68L186.69-23.68L186.69-23.68Q188.16-22.27 191.94-19.97L191.94-19.97L191.94-19.97Q195.71-17.66 197.15-15.78L197.15-15.78L197.15-15.78Q198.59-13.89 198.59-11.30L198.59-11.30L198.59-11.30Q198.59-8.70 197.34-6.34L197.34-6.34L197.34-6.34Q196.10-3.97 193.86-2.30L193.86-2.30L193.86-2.30Q189.06 1.28 181.38 1.28L181.38 1.28L181.38 1.28Q177.22 1.28 174.02-0.90L174.02-0.90L174.02-0.90Q170.82-3.01 170.82-5.50L170.82-5.50L170.82-5.50Q170.82-8 172.64-9.47L172.64-9.47L172.64-9.47Q174.46-10.94 177.15-10.94L177.15-10.94L177.15-10.94Q179.84-10.94 181.50-9.92L181.50-9.92L181.50-9.92Q180.67-7.81 180.67-6.40L180.67-6.40L180.67-6.40Q180.67-2.18 184.26-2.18L184.26-2.18L184.26-2.18Q185.79-2.18 186.82-3.14L186.82-3.14L186.82-3.14Q187.84-4.10 187.84-5.76L187.84-5.76L187.84-5.76Q187.84-9.02 182.34-12.48L182.34-12.48L182.34-12.48Q177.86-15.42 176.83-16.58L176.83-16.58L176.83-16.58Q175.10-18.62 175.10-21.18L175.10-21.18L175.10-21.18Q175.10-23.74 176.32-26.18L176.32-26.18L176.32-26.18Q177.54-28.61 179.78-30.34L179.78-30.34L179.78-30.34Q184.45-33.92 192.58-33.92L192.58-33.92L192.58-33.92Q196.74-33.92 199.20-32.26L199.20-32.26L199.20-32.26Q201.66-30.59 201.66-27.78L201.66-27.78L201.66-27.78Q201.66-24.96 199.97-23.36L199.97-23.36L199.97-23.36Q198.27-21.76 195.20-21.76L195.20-21.76L195.20-21.76Q193.09-21.76 192.06-22.46ZM223.17-22.46L223.17-22.46L223.17-22.46Q224.06-24.83 224.06-26.88L224.06-26.88L224.06-26.88Q224.06-30.66 220.99-30.66L220.99-30.66L220.99-30.66Q219.39-30.66 218.08-29.22L218.08-29.22L218.08-29.22Q216.77-27.78 216.77-25.98L216.77-25.98L216.77-25.98Q216.77-24.70 217.79-23.68L217.79-23.68L217.79-23.68Q219.26-22.27 223.04-19.97L223.04-19.97L223.04-19.97Q226.82-17.66 228.26-15.78L228.26-15.78L228.26-15.78Q229.70-13.89 229.70-11.30L229.70-11.30L229.70-11.30Q229.70-8.70 228.45-6.34L228.45-6.34L228.45-6.34Q227.20-3.97 224.96-2.30L224.96-2.30L224.96-2.30Q220.16 1.28 212.48 1.28L212.48 1.28L212.48 1.28Q208.32 1.28 205.12-0.90L205.12-0.90L205.12-0.90Q201.92-3.01 201.92-5.50L201.92-5.50L201.92-5.50Q201.92-8 203.74-9.47L203.74-9.47L203.74-9.47Q205.57-10.94 208.26-10.94L208.26-10.94L208.26-10.94Q210.94-10.94 212.61-9.92L212.61-9.92L212.61-9.92Q211.78-7.81 211.78-6.40L211.78-6.40L211.78-6.40Q211.78-2.18 215.36-2.18L215.36-2.18L215.36-2.18Q216.90-2.18 217.92-3.14L217.92-3.14L217.92-3.14Q218.94-4.10 218.94-5.76L218.94-5.76L218.94-5.76Q218.94-9.02 213.44-12.48L213.44-12.48L213.44-12.48Q208.96-15.42 207.94-16.58L207.94-16.58L207.94-16.58Q206.21-18.62 206.21-21.18L206.21-21.18L206.21-21.18Q206.21-23.74 207.42-26.18L207.42-26.18L207.42-26.18Q208.64-28.61 210.88-30.34L210.88-30.34L210.88-30.34Q215.55-33.92 223.68-33.92L223.68-33.92L223.68-33.92Q227.84-33.92 230.30-32.26L230.30-32.26L230.30-32.26Q232.77-30.59 232.77-27.78L232.77-27.78L232.77-27.78Q232.77-24.96 231.07-23.36L231.07-23.36L231.07-23.36Q229.38-21.76 226.30-21.76L226.30-21.76L226.30-21.76Q224.19-21.76 223.17-22.46ZM239.68-26.75L239.68-26.75L239.68-26.75Q241.86-29.82 245.15-31.87L245.15-31.87L245.15-31.87Q248.45-33.92 252.48-33.92L252.48-33.92L252.48-33.92Q256.51-33.92 258.43-32.64L258.43-32.64L270.98-33.92L266.62-9.34L266.62-9.34Q264.38 3.20 259.65 8.13L259.65 8.13L259.65 8.13Q255.10 12.80 246.27 12.80L246.27 12.80L246.27 12.80Q239.55 12.80 235.71 10.69L235.71 10.69L235.71 10.69Q231.87 8.58 231.87 5.06L231.87 5.06L231.87 5.06Q231.87 2.43 233.86 0.93L233.86 0.93L233.86 0.93Q235.84-0.58 238.91-0.58L238.91-0.58L238.91-0.58Q241.60-0.58 243.65 0.64L243.65 0.64L243.65 0.64Q244.86 1.28 245.44 2.18L245.44 2.18L245.44 2.18Q243.97 3.46 243.97 5.57L243.97 5.57L243.97 5.57Q243.97 8.32 246.53 8.32L246.53 8.32L246.53 8.32Q250.82 8.32 253.25-1.79L253.25-1.79L253.25-1.79Q253.95-4.54 254.53-7.30L254.53-7.30L254.53-7.30Q251.65-3.78 245.12-3.78L245.12-3.78L245.12-3.78Q240.58-3.78 237.95-5.95L237.95-5.95L237.95-5.95Q235.33-8.13 235.33-13.25L235.33-13.25L235.33-13.25Q235.33-16.45 236.42-20.06L236.42-20.06L236.42-20.06Q237.50-23.68 239.68-26.75ZM248-13.06L248-13.06L248-13.06Q248-8.70 250.24-8.70L250.24-8.70L250.24-8.70Q251.78-8.70 253.25-10.37L253.25-10.37L253.25-10.37Q254.40-11.71 254.85-13.70L254.85-13.70L258.11-30.14L258.11-30.14Q257.79-30.21 257.47-30.34L257.47-30.34L257.47-30.34Q256.83-30.59 256-30.59L256-30.59L256-30.59Q252.10-30.59 249.79-24.19L249.79-24.19L249.79-24.19Q248-19.20 248-13.06ZM293.82-7.23L293.82-7.23L293.82-7.23Q290.50-3.78 284.42-3.78L284.42-3.78L284.42-3.78Q276.80-3.78 275.20-9.34L275.20-9.34L275.20-9.34Q274.69-11.01 274.69-12.86L274.69-12.86L274.69-12.86Q274.69-14.72 275.07-16.64L275.07-16.64L278.08-32.64L291.07-33.92L287.55-15.30L287.55-15.30Q287.42-14.46 287.23-13.57L287.23-13.57L287.23-13.57Q287.04-12.67 287.04-11.74L287.04-11.74L287.04-11.74Q287.04-10.82 287.36-10.21L287.36-10.21L287.36-10.21Q287.68-9.60 288.13-9.22L288.13-9.22L288.13-9.22Q288.90-8.70 290.27-8.70L290.27-8.70L290.27-8.70Q291.65-8.70 292.83-10.37L292.83-10.37L292.83-10.37Q294.02-12.03 294.59-14.91L294.59-14.91L298.11-32.64L310.72-33.92L305.92-8.77L305.92-8.77Q303.55 3.52 298.69 8.38L298.69 8.38L298.69 8.38Q296.19 10.88 292.96 11.87L292.96 11.87L292.96 11.87Q289.73 12.86 285.57 12.86L285.57 12.86L285.57 12.86Q278.85 12.86 275.01 10.75L275.01 10.75L275.01 10.75Q271.17 8.64 271.17 5.12L271.17 5.12L271.17 5.12Q271.17 2.50 273.15 0.99L273.15 0.99L273.15 0.99Q275.14-0.51 278.21-0.51L278.21-0.51L278.21-0.51Q280.90-0.51 282.94 0.64L282.94 0.64L282.94 0.64Q284.16 1.34 284.74 2.24L284.74 2.24L284.74 2.24Q283.26 3.52 283.26 5.63L283.26 5.63L283.26 5.63Q283.26 8.45 285.82 8.45L285.82 8.45L285.82 8.45Q290.05 8.45 292.48-1.28L292.48-1.28L292.48-1.28Q293.18-4.16 293.82-7.23Z" fill="url(#editing-glowing-gradient)"></path></g></g><style>text {
  font-size: 64px;
  font-family: Arial Black;
  dominant-baseline: central;
  text-anchor: middle;
}</style></svg>